<svg width="30" height="34" viewBox="0 0 30 34" fill="none" xmlns="http://www.w3.org/2000/svg">
<path d="M24.0796 13.9426L22.7586 15.8112L18.6888 15.3033L14.8584 14.8755L13.1874 16.7283L11.5519 18.5718L8.86721 17.8472L6.34991 17.0793L4.68848 18.894L4.61538 18.9662L1 4.28351L13.6773 1L22.1041 5.84598L24.0926 13.9215L24.0796 13.9426Z" fill="#020611"/>
<path d="M22.1201 5.83722L16.5764 7.3487L15.3377 7.66953L13.7026 1.02894" fill="#020611"/>
<path d="M24.4921 16.3117L23.5762 18.1116L19.461 18.1441L15.5949 18.2239L14.1854 20.2737L12.8104 22.3096L10.043 21.9462L7.436 21.5182L6.14686 23.3479L5.95474 23.6291L9.29035 32L28 24.4463L24.6389 16.0117L24.4921 16.3117Z" fill="#020611"/>
<path d="M22.1201 5.83722L16.5764 7.3487L15.3377 7.66953L13.7026 1.02894M4.16817 7.77594L12.1299 5.71379M5.49582 13.094L20.8384 9.12015M9.74421 27.5471L24.4649 21.6293M24.0796 13.9426L22.7586 15.8112L18.6888 15.3033L14.8584 14.8755L13.1874 16.7283L11.5519 18.5718L8.86721 17.8472L6.34991 17.0793L4.68848 18.894L4.61538 18.9662L1 4.28351L13.6773 1L22.1041 5.84598L24.0926 13.9215L24.0796 13.9426ZM24.4921 16.3117L23.5762 18.1116L19.461 18.1441L15.5949 18.2239L14.1854 20.2737L12.8104 22.3096L10.043 21.9462L7.436 21.5182L6.14686 23.3479L5.95474 23.6291L9.29035 32L28 24.4463L24.6389 16.0117L24.4921 16.3117Z" stroke="#FDF7F7" stroke-width="1.65" stroke-miterlimit="10"/>
</svg>
